# xmcd CD database file
#
# Track frame offsets:
#	150
#	18990
#	39945
#	59967
#	85552
#	136912
#	167085
#	192090
#	228582
#
# Disc length: 3868 seconds
#
# Revision: 0
# Processed by: cddbd v1.5.2PL0 Copyright (c) Steve Scherf et al.
# Submitted via: CDex 1.51
#
DISCID=6e0f1a09
DTITLE=Amma - Malayalam Bhajans Vol. 1
DYEAR=1900
DGENRE=Bhajans
TTITLE0=1 Anandamayi Brahmayi
TTITLE1=2 Srishtiyum Niye
TTITLE2=3 Sundari Ni Vayo
TTITLE3=4 Kannunir Kondu Nin
TTITLE4=5 Kamesha Vamakshi
TTITLE5=6 Urirayi Oliyayi
TTITLE6=7 Vannalum Ambike
TTITLE7=8 Chamundaye
TTITLE8=9 Bhaktavalsale Devi
EXTD=
EXTT0=
EXTT1=
EXTT2=
EXTT3=
EXTT4=
EXTT5=
EXTT6=
EXTT7=
EXTT8=
PLAYORDER=
